<svg viewBox="0 0 400 200" xmlns="http://www.w3.org/2000/svg" preserveAspectRatio="xMidYMid meet" style="width: 100%; height: auto;">
  <style>
    /* Advanced CSS for animations, styles, and effects */
    .block {
      fill: url(#redGradient);
      stroke: #333;
      stroke-width: 1;
      filter: drop-shadow(0 0 8px rgba(255, 0, 0, 0.6)) url(#neonGlow);
      animation: float 4s ease-in-out infinite;
    }
    .link {
      stroke: #888;
      stroke-width: 3;
      stroke-dasharray: 8 4;
      animation: dashFlow 1.5s linear infinite;
    }
    .node {
      fill: url(#nodeGradient);
      filter: url(#pulseGlow);
      animation: pulseScale 2s ease-in-out infinite alternate;
    }
    .particle {
      fill: #ff4d4d;
      opacity: 0.8;
      animation: particleMove 3s linear infinite;
    }
    .glow {
      filter: url(#advancedGlow);
    }
    @keyframes dashFlow {
      to {
        stroke-dashoffset: -12;
      }
    }
    @keyframes pulseScale {
      0% { transform: scale(1); }
      100% { transform: scale(1.2); }
    }
    @keyframes float {
      0%, 100% { transform: translateY(0); }
      50% { transform: translateY(-5px); }
    }
    @keyframes rotateSlow {
      from { transform: rotate(0deg); }
      to { transform: rotate(360deg); }
    }
    @keyframes particleMove {
      0% { transform: translate(0, 0); opacity: 0.8; }
      100% { transform: translate(50px, -20px); opacity: 0; }
    }
    .bitcoin-symbol {
      animation: rotateSlow 30s linear infinite;
      transform-origin: center;
    }
    .network-line {
      stroke: #cc0000;
      stroke-width: 1.5;
      stroke-dasharray: 5 5;
      animation: linePulse 2s ease-in-out infinite;
    }
    @keyframes linePulse {
      0%, 100% { opacity: 0.5; }
      50% { opacity: 1; }
    }
  </style>

  <!-- Advanced Definitions: Gradients and Filters -->
  <defs>
    <linearGradient id="redGradient" x1="0%" y1="0%" x2="100%" y2="100%">
      <stop offset="0%" style="stop-color:#ff0000;stop-opacity:1" />
      <stop offset="100%" style="stop-color:#b30000;stop-opacity:1" />
    </linearGradient>
    <linearGradient id="nodeGradient" x1="0%" y1="0%" x2="100%" y2="100%">
      <stop offset="0%" style="stop-color:#ff4d4d;stop-opacity:1" />
      <stop offset="100%" style="stop-color:#ff0000;stop-opacity:1" />
    </linearGradient>
    <filter id="neonGlow">
      <feGaussianBlur stdDeviation="2" result="blur" />
      <feMerge>
        <feMergeNode in="blur" />
        <feMergeNode in="SourceGraphic" />
      </feMerge>
    </filter>
    <filter id="pulseGlow">
      <feGaussianBlur in="SourceAlpha" stdDeviation="4" result="blur" />
      <feOffset in="blur" dx="0" dy="0" result="offsetBlur" />
      <feFlood flood-color="#ff0000" flood-opacity="0.7" result="flood" />
      <feComposite in="flood" in2="offsetBlur" operator="in" result="comp" />
      <feMerge>
        <feMergeNode in="comp" />
        <feMergeNode in="SourceGraphic" />
      </feMerge>
    </filter>
    <filter id="advancedGlow">
      <feGaussianBlur stdDeviation="5" result="blur" />
      <feMerge>
        <feMergeNode in="blur" />
        <feMergeNode in="SourceGraphic" />
      </feMerge>
    </filter>
  </defs>

  <!-- Subtle futuristic background grid with depth -->
  <g opacity="0.15">
    <rect width="400" height="200" fill="url(#bgGradient)" />
    <defs>
      <linearGradient id="bgGradient" x1="0%" y1="0%" x2="0%" y2="100%">
        <stop offset="0%" style="stop-color:#1a1a1a;stop-opacity:1" />
        <stop offset="100%" style="stop-color:#000000;stop-opacity:1" />
      </linearGradient>
    </defs>
    <line x1="0" y1="40" x2="400" y2="40" stroke="#ccc" stroke-width="0.5" />
    <line x1="0" y1="80" x2="400" y2="80" stroke="#ccc" stroke-width="0.5" />
    <line x1="0" y1="120" x2="400" y2="120" stroke="#ccc" stroke-width="0.5" />
    <line x1="0" y1="160" x2="400" y2="160" stroke="#ccc" stroke-width="0.5" />
    <line x1="80" y1="0" x2="80" y2="200" stroke="#ccc" stroke-width="0.5" />
    <line x1="160" y1="0" x2="160" y2="200" stroke="#ccc" stroke-width="0.5" />
    <line x1="240" y1="0" x2="240" y2="200" stroke="#ccc" stroke-width="0.5" />
    <line x1="320" y1="0" x2="320" y2="200" stroke="#ccc" stroke-width="0.5" />
  </g>

  <!-- Enhanced blockchain chain with branching and animations -->
  <g class="glow">
    <rect x="40" y="70" width="50" height="50" rx="8" class="block" style="animation-delay: 0s;" />
    <line x1="90" y1="95" x2="140" y2="95" class="link" />
    <rect x="140" y="70" width="50" height="50" rx="8" class="block" style="animation-delay: 0.5s;" />
    <line x1="190" y1="95" x2="240" y2="95" class="link" />
    <rect x="240" y="70" width="50" height="50" rx="8" class="block" style="animation-delay: 1s;" />
    <line x1="290" y1="95" x2="340" y2="95" class="link" />
    <rect x="340" y="70" width="50" height="50" rx="8" class="block" style="animation-delay: 1.5s;" />
    <!-- Branching chain for complexity -->
    <line x1="190" y1="95" x2="190" y2="145" class="link" style="transform: rotate(90deg); transform-origin: 190px 95px;" />
    <rect x="165" y="145" width="50" height="50" rx="8" class="block" style="animation-delay: 2s;" />
  </g>

  <!-- Decentralized network nodes with pulses and connections -->
  <g>
    <circle cx="60" cy="40" r="12" class="node" style="animation-delay: 0s;" />
    <circle cx="150" cy="160" r="12" class="node" style="animation-delay: 0.3s;" />
    <circle cx="250" cy="40" r="12" class="node" style="animation-delay: 0.6s;" />
    <circle cx="340" cy="160" r="12" class="node" style="animation-delay: 0.9s;" />
    <circle cx="200" cy="100" r="12" class="node" style="animation-delay: 1.2s;" />
    <line x1="60" y1="40" x2="150" y2="160" class="network-line" />
    <line x1="150" y1="160" x2="250" y2="40" class="network-line" />
    <line x1="250" y1="40" x2="340" y2="160" class="network-line" />
    <line x1="340" y1="160" x2="60" y2="40" class="network-line" />
    <line x1="200" y1="100" x2="150" y2="160" class="network-line" />
  </g>

  <!-- Particle effects for dynamic flow -->
  <g>
    <circle cx="100" cy="95" r="3" class="particle" style="animation-delay: 0s;" />
    <circle cx="190" cy="95" r="3" class="particle" style="animation-delay: 0.5s;" />
    <circle cx="280" cy="95" r="3" class="particle" style="animation-delay: 1s;" />
    <circle cx="190" cy="120" r="3" class="particle" style="animation-delay: 1.5s; transform: rotate(90deg);" />
  </g>

  <!-- Central rotating Bitcoin symbol with enhanced detail -->
  <g class="bitcoin-symbol" transform="translate(200,100)">
    <path d="M0 -25 Q12 -25 12 -12.5 L12 -7.5 Q12 0 6 0 Q12 0 12 7.5 L12 12.5 Q12 25 0 25 Q-12 25 -12 12.5 L-12 7.5 Q-12 0 -6 0 Q-12 0 -12 -7.5 L-12 -12.5 Q-12 -25 0 -25" fill="#ff0000" filter="url(#pulseGlow)" />
    <path d="M-6 -30 L6 -30 L6 -25 L-6 -25 Z" fill="#ff0000" />
    <path d="M-6 25 L6 25 L6 30 L-6 30 Z" fill="#ff0000" />
    <circle cx="0" cy="0" r="5" fill="#b30000" />
  </g>
</svg>